<?xml version="1.0" encoding="UTF-8"?>
<svg width="24" height="24" viewBox="0 0 24 24" xmlns="http://www.w3.org/2000/svg">
  <path d="M18.71 19.5c-.83 1.24-1.71 2.45-3.05 2.47-1.34.03-1.77-.79-3.29-.79-1.53 0-2 .77-3.27.82-1.31.05-2.3-1.32-3.14-2.53-1.71-2.52-3.03-7.02-1.27-10.08.88-1.52 2.45-2.48 4.12-2.51 1.29-.02 2.49.86 3.29.86.79 0 2.26-1.06 3.81-.9.65.03 2.47.26 3.64 1.98-.09.06-2.17 1.28-2.15 3.81.03 3.02 2.65 4.03 2.68 4.04-.03.07-.42 1.44-1.37 2.83M13 3.5c.73-.83 1.94-1.46 2.94-1.5.27 1.2-.34 2.38-1.04 3.19-.69.82-1.85 1.46-2.98 1.38-.32-1.15.32-2.35 1.08-3.07" fill="#000"/>
</svg> 