<svg width="120" height="120" viewBox="0 0 120 120" fill="none" xmlns="http://www.w3.org/2000/svg">
  <rect width="120" height="120" rx="24" fill="#00B386"/>
  <path d="M60 30C42.32 30 28 44.32 28 62C28 79.68 42.32 94 60 94C77.68 94 92 79.68 92 62C92 44.32 77.68 30 60 30ZM70 65H63V72C63 73.66 61.66 75 60 75C58.34 75 57 73.66 57 72V65H50C48.34 65 47 63.66 47 62C47 60.34 48.34 59 50 59H57V52C57 50.34 58.34 49 60 49C61.66 49 63 50.34 63 52V59H70C71.66 59 73 60.34 73 62C73 63.66 71.66 65 70 65Z" fill="white"/>
</svg> 